<svg width="190" height="60" viewBox="0 0 190 60" fill="none" xmlns="http://www.w3.org/2000/svg">
<path d="M32.8613 25.752C34.9253 25.752 36.3973 26.224 37.2773 27.168C38.1733 28.1119 38.6211 29.4479 38.6211 31.1758V35.208C38.6211 35.5597 38.6773 35.7997 38.7891 35.9277C38.901 36.0557 39.0533 36.1201 39.2451 36.1201H39.5811V39C39.485 39.016 39.3169 39.0403 39.0771 39.0723C38.8532 39.1202 38.6049 39.1436 38.333 39.1436C37.6292 39.1435 37.0291 39.0157 36.5332 38.7598C36.0373 38.5038 35.6538 38.1436 35.3818 37.6797C35.2621 37.4627 35.1674 37.2299 35.0967 36.9814C35.006 37.2427 34.8856 37.4916 34.7334 37.7275C34.4294 38.2075 33.9974 38.5919 33.4375 38.8799C32.8936 39.1518 32.2217 39.288 31.4219 39.2881C30.638 39.2881 29.9176 39.1443 29.2617 38.8564C28.6058 38.5685 28.0777 38.1439 27.6777 37.584C27.2937 37.024 27.1016 36.3439 27.1016 35.5439C27.1016 34.456 27.4617 33.608 28.1816 33C28.9176 32.3921 29.8375 31.9601 30.9414 31.7041L34.541 30.8877C34.541 30.2639 34.429 29.7683 34.2051 29.4004C33.9971 29.0164 33.581 28.8242 32.957 28.8242C32.4612 28.8243 32.085 28.9679 31.8291 29.2559C31.5732 29.5278 31.4211 29.8479 31.373 30.2158L27.1973 30.0244C27.4373 28.7284 28.0613 27.6957 29.0693 26.9277C30.0933 26.1438 31.3574 25.752 32.8613 25.752ZM61.1631 25.752C62.3949 25.752 63.4829 26.0478 64.4268 26.6396C65.3708 27.2156 66.1068 28.0245 66.6348 29.0645C67.1786 30.0884 67.4502 31.2724 67.4502 32.6162V33.5762H59.0508C59.1308 34.264 59.3706 34.808 59.7705 35.208C60.1864 35.5919 60.6904 35.7841 61.2822 35.7842C61.7302 35.7842 62.123 35.6797 62.459 35.4717C62.7948 35.2477 63.0263 34.9518 63.1543 34.584L67.1631 34.8477C66.6671 36.3356 65.9226 37.4476 64.9307 38.1836C63.9388 38.9195 62.6829 39.288 61.1631 39.2881C59.9631 39.2881 58.8828 39.0157 57.9229 38.4717C56.9789 37.9117 56.2344 37.1281 55.6904 36.1201C55.1464 35.0961 54.875 33.8955 54.875 32.5195C54.8751 31.1917 55.1391 30.0235 55.667 29.0156C56.2109 27.9919 56.9547 27.1921 57.8984 26.6162C58.8424 26.0402 59.9311 25.752 61.1631 25.752ZM88.5039 25.752C90.5679 25.752 92.0399 26.224 92.9199 27.168C93.8159 28.1119 94.2636 29.4479 94.2637 31.1758V35.208C94.2637 35.5597 94.3198 35.7997 94.4316 35.9277C94.5436 36.0557 94.6958 36.1201 94.8877 36.1201H95.2236V39C95.1276 39.016 94.9595 39.0403 94.7197 39.0723C94.4958 39.1202 94.2475 39.1436 93.9756 39.1436C93.2717 39.1435 92.6717 39.0157 92.1758 38.7598C91.6799 38.5038 91.2954 38.1436 91.0234 37.6797C90.9038 37.4628 90.8099 37.2298 90.7393 36.9814C90.6486 37.2427 90.5282 37.4916 90.376 37.7275C90.072 38.2075 89.64 38.5919 89.0801 38.8799C88.5361 39.1519 87.8635 39.2881 87.0635 39.2881C86.2798 39.288 85.56 39.1443 84.9043 38.8564C84.2484 38.5685 83.7203 38.1439 83.3203 37.584C82.9363 37.024 82.7441 36.3439 82.7441 35.5439C82.7442 34.456 83.1042 33.608 83.8242 33C84.5602 32.3921 85.4801 31.9601 86.584 31.7041L90.1836 30.8877C90.1836 30.2639 90.0716 29.7683 89.8477 29.4004C89.6397 29.0164 89.2236 28.8242 88.5996 28.8242C88.1038 28.8243 87.7276 28.9679 87.4717 29.2559C87.2157 29.5278 87.0636 29.8479 87.0156 30.2158L82.8398 30.0244C83.0798 28.7284 83.7039 27.6957 84.7119 26.9277C85.7359 26.1438 87 25.752 88.5039 25.752ZM130.716 25.752C131.964 25.752 133.06 26.0318 134.004 26.5918C134.948 27.1358 135.684 27.9203 136.212 28.9443C136.74 29.9522 137.004 31.1439 137.004 32.5195C137.004 33.8955 136.74 35.0961 136.212 36.1201C135.684 37.128 134.948 37.9117 134.004 38.4717C133.06 39.0157 131.964 39.2881 130.716 39.2881C129.468 39.2881 128.372 39.0157 127.428 38.4717C126.484 37.9117 125.748 37.128 125.22 36.1201C124.692 35.0961 124.428 33.8955 124.428 32.5195C124.428 31.1439 124.692 29.9522 125.22 28.9443C125.748 27.9203 126.484 27.1358 127.428 26.5918C128.372 26.0318 129.468 25.752 130.716 25.752ZM5.71191 21.96C6.87989 21.96 7.92004 22.2081 8.83203 22.7041C9.74403 23.1841 10.4558 23.8483 10.9678 24.6963C11.4958 25.5443 11.7598 26.52 11.7598 27.624C11.7598 28.728 11.4958 29.7038 10.9678 30.5518C10.4558 31.3837 9.74398 32.0395 8.83203 32.5195C7.92003 32.9995 6.87991 33.2402 5.71191 33.2402H4.32031V39H0V21.96H5.71191ZM17.2227 21.96C18.7427 21.96 19.8789 22.3443 20.6309 23.1123C21.3987 23.8642 21.7831 24.9999 21.7832 26.5195V35.8799H25.6709V39H13.1904V35.8799H17.7031V26.4717C17.7031 26.008 17.5826 25.6644 17.3428 25.4404C17.1188 25.2004 16.7745 25.0801 16.3105 25.0801H13.6709V21.96H17.2227ZM49.1719 25.752C50.0678 25.752 50.7881 25.9517 51.332 26.3516C51.876 26.7516 52.2762 27.3122 52.5322 28.0322C52.7882 28.7522 52.916 29.6003 52.916 30.5762V39H48.8359V31.416C48.8359 30.6001 48.7155 30.0245 48.4756 29.6885C48.2356 29.3365 47.8839 29.1602 47.4199 29.1602C47.116 29.1602 46.8276 29.2563 46.5557 29.4482C46.2999 29.6242 46.0841 29.896 45.9082 30.2637C45.7482 30.6317 45.668 31.0963 45.668 31.6562V39H41.5879V26.04H45.3076L45.3809 28.3154C45.5017 27.9881 45.6455 27.6931 45.8125 27.4316C46.1805 26.8559 46.6443 26.4321 47.2041 26.1602C47.7801 25.8882 48.4359 25.752 49.1719 25.752ZM76.2734 26.04H80.833V29.1602H76.2734V34.1045C76.2735 34.6963 76.4172 35.1443 76.7051 35.4482C77.009 35.7362 77.4571 35.8798 78.0488 35.8799H80.833V39H76.7529C75.1693 38.9999 74.0094 38.6481 73.2734 37.9443C72.5534 37.2243 72.1934 36.1198 72.1934 34.6318V29.1602H68.833V26.04H72.1934V22.9922H76.2734V26.04ZM103.155 28.5938C103.322 27.9001 103.578 27.3442 103.927 26.9277C104.439 26.3359 105.231 26.04 106.303 26.04H109.375V29.2559H106.687C106.095 29.2559 105.607 29.352 105.223 29.5439C104.855 29.7199 104.582 29.9998 104.406 30.3838C104.23 30.7517 104.143 31.2239 104.143 31.7998V35.8799H107.982V39H97.1348V35.8799H100.062V29.1602H97.1348V26.04H102.942L103.155 28.5938ZM119.686 35.8799H123.525V39H111.045V35.8799H115.605V29.1602H111.285V26.04H119.686V35.8799ZM32.3818 34.1045C31.9818 34.2005 31.6936 34.3441 31.5176 34.5361C31.3576 34.7281 31.2773 35.0164 31.2773 35.4004C31.2774 35.704 31.3654 35.9517 31.541 36.1436C31.733 36.3195 32.0213 36.4082 32.4053 36.4082C32.8372 36.4082 33.2132 36.3279 33.5332 36.168C33.8531 35.992 34.1014 35.7362 34.2773 35.4004C34.4533 35.0485 34.541 34.6163 34.541 34.1045V33.5762L32.3818 34.1045ZM88.0234 34.1045C87.6238 34.2005 87.3361 34.3442 87.1602 34.5361C87.0002 34.7281 86.9199 35.0164 86.9199 35.4004C86.92 35.704 87.0079 35.9517 87.1836 36.1436C87.3756 36.3195 87.6639 36.4082 88.0479 36.4082C88.4798 36.4082 88.8558 36.3279 89.1758 36.168C89.4957 35.992 89.7439 35.7362 89.9199 35.4004C90.0959 35.0485 90.1835 34.6163 90.1836 34.1045V33.5762L88.0234 34.1045ZM61.1143 29.2559C60.5545 29.2559 60.099 29.4164 59.7471 29.7363C59.4111 30.0403 59.2031 30.4799 59.123 31.0557H63.1064C63.0424 30.4799 62.8343 30.0403 62.4824 29.7363C62.1304 29.4163 61.6743 29.2559 61.1143 29.2559ZM129.613 30C129.337 30 129.113 30.2239 129.113 30.5C129.113 30.7761 129.337 31 129.613 31C129.889 31 130.113 30.7761 130.113 30.5C130.113 30.2239 129.889 30 129.613 30ZM132.613 27C131.785 27 131.113 27.6716 131.113 28.5C131.113 29.3284 131.785 30 132.613 30C133.442 30 134.113 29.3284 134.113 28.5C134.113 27.6716 133.442 27 132.613 27ZM134.613 29C134.337 29 134.113 29.2239 134.113 29.5C134.113 29.7761 134.337 30 134.613 30C134.889 30 135.113 29.7761 135.113 29.5C135.113 29.2239 134.889 29 134.613 29ZM4.32031 29.4482H5.28027C5.96821 29.4482 6.48043 29.2962 6.81641 28.9922C7.16837 28.6882 7.34375 28.232 7.34375 27.624C7.34375 27.0002 7.16817 26.5364 6.81641 26.2324C6.48043 25.9124 5.96821 25.752 5.28027 25.752H4.32031V29.4482ZM119.661 24.7441H115.581V21.5762H119.661V24.7441Z" fill="white"/>
</svg>
